<?xml version="1.0" encoding="UTF-8"?>
<svg width="12px" height="12px" viewBox="0 0 12 12" version="1.1" xmlns="http://www.w3.org/2000/svg" xmlns:xlink="http://www.w3.org/1999/xlink">
    <title>系统</title>
    <g id="系统分析+用户管理" stroke="none" stroke-width="1" fill="none" fill-rule="evenodd">
        <g id="系统管理-角色管理" transform="translate(-282.000000, -71.000000)">
            <g id="编组" transform="translate(210.000000, 64.000000)">
                <g id="取消" transform="translate(72.000000, 7.000000)">
                    <rect id="矩形" fill="#D8D8D8" opacity="0" x="0" y="0" width="12" height="12"></rect>
                    <path d="M9.7382009,9.99533897 L6.68913485,6.94622709 L9.73817798,3.89681729 C9.8375859,3.79742106 9.8922618,3.66526359 9.89216797,3.52467655 C9.89207405,3.38451118 9.83748059,3.25294071 9.73845985,3.1542007 C9.63928649,3.05476929 9.50757531,3.0000825 9.36738588,3 C9.22659947,3 9.09458327,3.05467556 8.99528066,3.15394289 L5.94630628,6.20292873 L2.89681627,3.15394289 C2.79754906,3.05467568 2.6656384,3 2.52537907,3 C2.38513119,3 2.25322042,3.05466376 2.15396592,3.15391882 C2.05473389,3.25288113 2.00009408,3.38451003 2,3.5246754 C1.99990632,3.66526244 2.05458184,3.79741957 2.15396592,3.89680469 L5.20343301,6.94621449 L2.15395447,9.99534929 C2.05467557,10.0946165 2,10.2265042 2,10.366775 C2,10.5070229 2.05468737,10.6389451 2.15396592,10.7382237 C2.25322145,10.8374909 2.38512088,10.8921425 2.52536761,10.8921425 C2.66562694,10.8921425 2.79754917,10.8374788 2.89680481,10.7382237 L5.94626044,7.68914619 L8.99534941,10.7382237 C9.09461662,10.8374909 9.22664415,10.8921425 9.3670914,10.8921425 C9.50763146,10.8920487 9.63921453,10.837467 9.73798892,10.7384574 C9.94294895,10.5334745 9.94300738,10.2001443 9.73819996,9.99533668 L9.7382009,9.99533897 Z" id="路径" fill="#57678E" fill-rule="nonzero"></path>
                </g>
            </g>
        </g>
    </g>
</svg>
