<svg t="1620378240341" class="icon" viewBox="0 0 1024 1024" version="1.1" xmlns="http://www.w3.org/2000/svg" p-id="83776" width="200" height="200"><path d="M295.563636 812.218182c-4.654545 0-9.309091 0-13.963636-4.654546-116.363636-65.163636-186.181818-186.181818-186.181818-318.836363 0-200.145455 162.909091-363.054545 363.054545-363.054546 95.418182 0 186.181818 37.236364 256 104.727273 6.981818 6.981818 9.309091 18.618182 6.981818 27.927273-2.327273 9.309091-11.636364 16.290909-23.272727 18.618182 0 0-60.509091 11.636364-114.036363 74.472727C525.963636 418.909091 512 535.272727 512 535.272727c-2.327273 13.963636-13.963636 23.272727-27.927273 25.6-27.927273 0-107.054545 11.636364-139.636363 55.854546l-2.327273 2.327272c-32.581818 34.909091-25.6 130.327273-20.945455 160.581819 2.327273 11.636364-2.327273 20.945455-11.636363 27.927272-2.327273 2.327273-9.309091 4.654545-13.963637 4.654546z m162.909091-628.363637c-169.890909 0-307.2 137.309091-307.2 307.2 0 93.090909 41.890909 179.2 111.709091 237.381819 0-46.545455 4.654545-109.381818 39.563637-146.618182 41.890909-55.854545 118.690909-72.145455 158.254545-76.8 6.981818-41.890909 30.254545-128 81.454545-188.509091 34.909091-39.563636 69.818182-62.836364 97.745455-76.8-53.527273-34.909091-116.363636-55.854545-181.527273-55.854546zM698.181818 679.563636c-6.981818 0-13.963636-2.327273-18.618182-6.981818l-88.436363-86.109091c-4.654545-4.654545-9.309091-11.636364-9.309091-20.945454s2.327273-13.963636 9.309091-20.945455l216.436363-197.818182c4.654545-4.654545 9.309091-6.981818 16.290909-6.981818 39.563636-4.654545 67.490909 4.654545 86.109091 27.927273 27.927273 32.581818 16.290909 76.8 16.290909 83.781818-2.327273 4.654545-4.654545 9.309091-6.981818 11.636364l-200.145454 207.127272c-4.654545 6.981818-11.636364 9.309091-20.945455 9.309091z m-46.545454-114.036363l46.545454 46.545454 174.545455-181.527272c0-6.981818 0-18.618182-4.654546-25.6-4.654545-6.981818-13.963636-9.309091-30.254545-9.309091l-186.181818 169.890909z" p-id="83777"></path><path d="M421.236364 896h-13.963637c-9.309091 0-18.618182-4.654545-23.272727-13.963636-4.654545-6.981818-4.654545-18.618182-2.327273-25.6 0 0 23.272727-48.872727 13.963637-97.745455-6.981818-37.236364 2.327273-76.8 25.6-107.054545 25.6-32.581818 65.163636-53.527273 109.381818-58.181819 9.309091 0 16.290909 2.327273 23.272727 6.981819l107.054546 102.4c4.654545 4.654545 9.309091 11.636364 9.30909 18.618181 0 2.327273 0 60.509091-48.872727 109.381819-41.890909 44.218182-109.381818 65.163636-200.145454 65.163636z m107.054545-246.690909c-25.6 4.654545-46.545455 16.290909-60.509091 34.909091-13.963636 18.618182-18.618182 41.890909-16.290909 65.163636 6.981818 34.909091 2.327273 67.490909-4.654545 90.763637 60.509091-4.654545 109.381818-20.945455 137.309091-48.872728 20.945455-20.945455 27.927273-44.218182 30.254545-58.181818l-86.109091-83.781818z" p-id="83778"></path></svg>
