<?xml version="1.0" encoding="UTF-8"?>
<svg viewBox="0 0 16 16" version="1.1" xmlns="http://www.w3.org/2000/svg" xmlns:xlink="http://www.w3.org/1999/xlink">
    <path d="M0,6 L0,10 C0,10.5520362 0.447058824,11.000905 1.00090498,11.000905 L2.50135747,11.000905 L2.50135747,4.99909502 L1.00090498,4.99909502 C0.448868778,4.99909502 0,5.4479638 0,6 Z M12.7221719,8 L14.8090498,5.91312217 C15.0334842,5.68868778 15.0552036,5.34298643 14.8561086,5.1438914 C14.6570136,4.94479638 14.3131222,4.96470588 14.0868778,5.19095023 L12,7.27782805 L9.91493213,5.19095023 C9.69049774,4.96470588 9.34479638,4.94479638 9.14570136,5.1438914 C8.94660633,5.34298643 8.96651584,5.68687783 9.19276018,5.91312217 L11.279638,8 L9.19276018,10.0868778 C8.96832579,10.3113122 8.94660633,10.6570136 9.14570136,10.8561086 C9.34479638,11.0552036 9.68868778,11.0352941 9.91493213,10.8090498 L12.00181,8.72217195 L14.0886878,10.8090498 C14.3131222,11.0334842 14.6588235,11.0552036 14.8579186,10.8561086 C15.0570136,10.6570136 15.0371041,10.3131222 14.8108597,10.0868778 L12.7221719,8 L12.7221719,8 Z M7.00090498,2 L3.50045249,4.33303167 L3.50045249,11.6669683 L7.00090498,14 C7.55294118,14 8.00180995,13.5529412 8.00180995,12.999095 L8.00180995,2.99909502 C8,2.44705882 7.55294118,2 7.00090498,2 L7.00090498,2 Z" id="形状" fill-rule="nonzero"></path>
</svg>
