<svg t="1660199248928" class="icon" viewBox="0 0 1024 1024" version="1.1" xmlns="http://www.w3.org/2000/svg" p-id="5661" width="200" height="200"><path d="M222.487273 735.162182a34.909091 34.909091 0 0 0 21.876363-32.395637V425.285818c0-122.949818 87.202909-230.795636 207.336728-256.488727a34.909091 34.909091 0 0 0 26.600727-25.832727A34.676364 34.676364 0 0 1 512 116.363636c16.011636 0 29.882182 10.938182 33.722182 26.624a34.909091 34.909091 0 0 0 26.600727 25.809455c64.046545 13.707636 118.551273 50.897455 155.671273 101.143273L162.769455 835.165091c-22.365091-5.12-37.818182-10.402909-45.684364-15.36 5.678545-28.532364 44.962909-60.322909 105.402182-84.642909M779.636364 425.285818V700.974545c0 14.312727 8.750545 27.182545 22.039272 32.465455 61.114182 24.203636 99.560727 54.993455 105.239273 83.618909-29.789091 19.060364-167.051636 44.893091-394.984727 45.661091-109.847273-0.069818-198.516364-5.725091-264.378182-13.637818l515.304727-515.304727c10.798545 28.695273 16.756364 59.554909 16.756364 91.461818M82.804364 880.314182a160.581818 160.581818 0 0 0 24.110545 10.705454L68.421818 929.512727a34.909091 34.909091 0 1 0 49.338182 49.338182l68.189091-68.189091c66.862545 11.729455 153.972364 18.757818 245.876364 21.108364A81.221818 81.221818 0 0 0 512 1000.727273a81.221818 81.221818 0 0 0 80.267636-69.515637c154.624-5.003636 296.331636-23.04 349.323637-53.876363 29.742545-17.291636 35.909818-38.562909 35.84-53.341091-0.162909-57.064727-45.405091-108.404364-128-146.059637V425.285818c0-51.269818-12.171636-100.328727-33.652364-144.407273L961.396364 135.214545A34.909091 34.909091 0 1 0 912.058182 85.876364l-134.283637 134.260363c-42.914909-54.458182-102.469818-95.744-171.892363-114.967272A104.285091 104.285091 0 0 0 512 46.522182a104.261818 104.261818 0 0 0-93.858909 58.647273C275.874909 144.523636 174.545455 276.154182 174.545455 425.285818V679.796364c-82.967273 38.260364-128.186182 90.065455-128 147.362909 0.046545 14.801455 6.376727 36.026182 36.235636 53.108363" p-id="5662"></path></svg>