<svg t="1660199114692" class="icon" viewBox="0 0 1024 1024" version="1.1" xmlns="http://www.w3.org/2000/svg" p-id="3041" width="200" height="200"><path d="M940.23712 744.768c-11.712-14.656-24.96-32.128-39.552-52.48a524.48 524.48 0 0 1-39.04-63.36A479.424 479.424 0 0 1 830.47712 556.8a205.952 205.952 0 0 1-11.264-67.52c0-36.288-5.76-70.08-17.152-100.096a291.136 291.136 0 0 0-45.12-80.64 272.384 272.384 0 0 0-68.224-60.544 299.648 299.648 0 0 0-45.44-23.296l-24.704-11.264-9.92-2.368c19.392-22.464 31.552-51.328 31.552-83.2a127.872 127.872 0 0 0-255.744 0c0 32.256 12.416 61.44 32.128 83.968-3.84 0.96-7.04 1.856-8.256 2.24a323.584 323.584 0 0 0-77.184 36.352 281.152 281.152 0 0 0-111.168 137.792A278.144 278.144 0 0 0 201.99712 490.24c0 23.808-3.776 46.72-11.136 67.84-8.704 24.896-19.2 48.832-31.168 71.424-11.712 22.4-24.32 43.392-38.592 64.192-15.68 22.72-28.992 43.264-38.592 58.624-25.856 36.48-20.352 73.408-6.4 95.936 18.88 29.888 47.872 47.744 77.632 47.744h697.536c18.56 0 50.752-12.672 58.88-16.96 16.128-8 27.264-20.48 33.6-29.248 9.728-13.184 15.36-29.248 16.448-46.144a82.816 82.816 0 0 0-19.968-58.88zM512.39712 64a64 64 0 1 1-0.064 128.064A64 64 0 0 1 512.39712 64z m380.16 749.056a29.056 29.056 0 0 1-9.92 9.152c-5.248 2.816-23.36 9.024-29.44 9.792H151.05312c-6.336 0-15.04-6.848-21.056-16.512-1.92-3.328-4.032-10.432 5.376-23.872 10.24-16.768 23.168-36.672 38.272-58.88 15.936-23.552 29.952-47.104 43.072-72.064 13.568-25.856 25.472-53.44 35.328-81.984 9.92-28.8 14.976-59.52 14.976-91.456a219.2 219.2 0 0 1 99.328-186.88c20.352-12.992 40.96-22.848 59.52-28.736l36.544-10.048 0.64-0.128-0.128 0.064C478.34912 257.92 494.47712 256 511.18112 256c43.648 0 76.544 12.8 79.424 13.824 24.96 7.68 45.184 16.768 63.808 28.608 19.712 12.352 37.248 28.032 51.776 46.336 14.656 18.56 26.432 39.872 35.008 63.424 8.704 23.04 13.056 49.28 13.056 78.08 0 31.04 5.056 61.568 14.912 90.624 9.792 29.056 21.824 57.28 35.712 83.328 13.888 26.496 28.736 50.88 44.16 72.32 15.36 21.76 29.44 40.512 42.304 56.704 3.648 4.352 5.312 8.512 5.056 12.672a20.672 20.672 0 0 1-3.84 11.136zM672.39712 960a32 32 0 1 1 0 64h-320a32 32 0 0 1 0-64h320z"  p-id="3042"></path></svg>