<?xml version="1.0" encoding="UTF-8"?>
<svg width="16px" height="16px" viewBox="0 0 16 16" version="1.1" xmlns="http://www.w3.org/2000/svg" xmlns:xlink="http://www.w3.org/1999/xlink">
<path d="M7.99141477,3.10937168 C4.8274788,3.11367395 2.2708352,5.67318213 2.2708352,8.83711811 C2.2708352,10.6704536 3.13307579,12.303268 4.47370235,13.3517067 L3.93659235,14.0392075 C3.87786832,14.115119 3.93229547,14.2254056 4.02682683,14.2239871 L6.41875669,14.212515 C6.49323595,14.212515 6.54766309,14.1423326 6.52904328,14.0707179 L5.96328741,11.7461059 C5.94037072,11.6530068 5.82005808,11.6272255 5.76133405,11.7031371 L5.17839067,12.4493619 C5.03229675,12.3347784 4.891932,12.2101689 4.75872872,12.0769656 C4.33763448,11.6558714 4.00677472,11.1660271 3.77617549,10.6203233 C3.53698251,10.0559997 3.41666987,9.45586883 3.41666987,8.83711811 C3.41666987,8.21836739 3.53698251,7.61823648 3.77617549,7.05391291 C4.00677472,6.50820915 4.33763448,6.01836483 4.75872872,5.59727059 C5.17982296,5.17617635 5.66966728,4.84531659 6.21537104,4.61471736 C6.78112691,4.37552437 7.38125781,4.25521173 8.00000853,4.25521173 C8.61875925,4.25521173 9.21889016,4.37552437 9.78321373,4.61471736 C10.3289175,4.84531659 10.8187618,5.17617635 11.2398561,5.59727059 C11.6609503,6.01836483 11.9918101,6.50820915 12.2224093,7.05391291 C12.4616023,7.61823648 12.5819149,8.21836739 12.5819149,8.83711811 C12.5819149,9.45586883 12.4616023,10.0559997 12.2224093,10.6203233 C11.9918101,11.1660271 11.6609503,11.6558714 11.2398561,12.0769656 C11.1324341,12.1843876 11.0207152,12.2846482 10.9046994,12.3806118 C10.8560014,12.420716 10.84884,12.4908984 10.8875119,12.5395964 L11.4518355,13.2629045 C11.4919397,13.3130348 11.5649866,13.3216285 11.6151169,13.2815243 C12.9056132,12.230221 13.7291819,10.6303494 13.7291819,8.83711811 C13.7291819,5.67031755 11.1596476,3.10508019 7.99141477,3.10937168 Z" id="路径" fill-rule="nonzero"></path>
</svg>
