<?xml version="1.0" encoding="UTF-8"?>
<svg width="20px" height="20px" viewBox="0 0 20 20" version="1.1" xmlns="http://www.w3.org/2000/svg" xmlns:xlink="http://www.w3.org/1999/xlink">
    <path d="M16.0002234,2 C17.1046577,2 18,2.89624329 18,4 L18,16 C18,17.1037567 17.1046577,18 16.0002234,18 L3.99977661,18 C2.89534234,18 2,17.1055456 2,16 L2,4 C2,2.89624329 2.89534234,2 3.99977661,2 L16.0002234,2 Z M15.7661119,3.27191413 L4.23210097,3.27191413 C3.70132916,3.27191413 3.27063554,3.70304114 3.27063554,4.23255814 L3.27063554,15.765653 C3.27063554,16.2969589 3.70132916,16.726297 4.23210097,16.726297 L15.7661119,16.726297 C16.2968837,16.726297 16.7275773,16.2951699 16.7275773,15.765653 L16.7275773,4.23255814 C16.7275773,3.70125224 16.2968837,3.27191413 15.7661119,3.27191413 Z M8.75349045,10.5545617 C9.11627387,10.5545617 9.40935999,10.8479428 9.40935999,11.2110912 L9.40935999,15.0661896 C9.40935999,15.4293381 9.11448676,15.7298748 8.75349045,15.7227191 C8.40500391,15.7155635 8.12264046,15.4293381 8.12264046,15.078712 L8.122,12.77 L5.83335195,15.0626118 C5.58315648,15.313059 5.17390819,15.313059 4.92371272,15.0626118 C4.67351726,14.8121646 4.67351726,14.4025045 4.92371272,14.1520572 L7.231,11.842 L4.9362225,11.842576 C4.57343907,11.842576 4.27320451,11.549195 4.28035295,11.1860465 C4.2875014,10.8354204 4.57343907,10.5545617 4.92371272,10.5545617 L8.75349045,10.5545617 Z M11.2447224,4.27549195 C11.593209,4.28264758 11.8755724,4.56887299 11.8755724,4.91949911 L11.875,7.229 L14.1648609,4.93738819 C14.4150564,4.68694097 14.8243047,4.68694097 15.0745002,4.93738819 C15.3246956,5.18783542 15.3246956,5.59749553 15.0745002,5.84794275 L12.766,8.157 L15.0602033,8.15742397 C15.4229867,8.15742397 15.7232213,8.45080501 15.7160728,8.81395349 C15.7107115,9.16457961 15.4247738,9.44543828 15.0745002,9.44543828 L11.2411482,9.44543828 C10.8801519,9.44543828 10.5888529,9.15205725 10.5888529,8.79248658 L10.5888529,4.93202147 C10.5888529,4.56887299 10.8837261,4.26833631 11.2447224,4.27549195 Z" id="形状结合" fill-rule="nonzero"></path>
</svg>
