<svg t="1651802246011" class="icon" viewBox="0 0 1024 1024" version="1.1" xmlns="http://www.w3.org/2000/svg" p-id="3750" width="200" height="200"><path d="M512 1008c-66.98666667 0-131.94666667-13.12-193.06666667-38.93333333-59.09333333-24.96-112.10666667-60.69333333-157.65333333-106.24S80 764.16 55.04 705.06666667C29.12 643.94666667 16 578.98666667 16 512s13.12-131.94666667 39.04-193.06666667c24.96-59.09333333 60.69333333-112.10666667 106.24-157.65333333S259.84 80 318.93333333 55.04C380.05333333 29.12 445.01333333 16 512 16s131.94666667 13.12 193.06666667 39.04c59.09333333 24.96 112.10666667 60.69333333 157.65333333 106.24S944 259.84 969.06666667 318.93333333c25.92 61.12 38.93333333 126.08 38.93333333 193.06666667s-13.12 131.94666667-38.93333333 193.06666667c-24.96 59.09333333-60.69333333 112.10666667-106.24 157.65333333S764.16 944 705.06666667 969.06666667C643.94666667 994.88 578.98666667 1008 512 1008z m0-949.33333333C262.08 58.66666667 58.66666667 262.08 58.66666667 512s203.41333333 453.33333333 453.33333333 453.33333333 453.33333333-203.41333333 453.33333333-453.33333333S761.92 58.66666667 512 58.66666667z"  p-id="3751"></path><path d="M386.56 578.66666667c0 26.77333333-8.42666667 47.89333333-25.28 63.57333333-16.85333333 15.68-39.78666667 23.46666667-68.8 23.46666667-29.01333333 0-51.62666667-8.10666667-67.94666667-24.42666667-16.32-16.21333333-24.42666667-36.58666667-24.42666666-60.90666667v-12.16h40.10666666v10.45333334c0 17.38666667 5.22666667 30.82666667 15.68 40.10666666 10.45333333 9.28 22.61333333 13.97333333 36.58666667 13.97333334 18.56 0 32.21333333-4.90666667 40.96-14.82666667 8.74666667-9.81333333 13.01333333-21.76 13.01333333-35.73333333 0-11.62666667-5.22666667-22.29333333-15.68-32.21333334-10.45333333-9.81333333-25.6-18.88-45.33333333-26.98666666-27.84-10.45333333-47.89333333-22.08-60.05333333-34.88-12.16-12.8-18.24-27.84-18.24-45.33333334 0-24.42666667 8.42666667-44.16 25.28-59.2 16.85333333-15.04 36.8-22.61333333 60.05333333-22.61333333 30.18666667 0 51.94666667 8.96 65.28 26.98666667s20.05333333 37.44 20.05333333 58.34666666h-40.10666666c1.17333333-12.8-2.34666667-24.42666667-10.45333334-34.88-8.10666667-10.45333333-19.73333333-15.68-34.88-15.68-13.97333333 0-24.96 3.73333333-33.06666666 11.30666667-8.10666667 7.57333333-12.16 17.70666667-12.16 30.50666667 0 10.45333333 3.2 19.41333333 9.6 26.98666666 6.4 7.57333333 22.93333333 16.53333333 49.6 26.98666667 25.49333333 10.45333333 45.33333333 22.93333333 59.2 37.44 14.08 14.50666667 21.01333333 31.14666667 21.01333333 49.70666667zM619.94666667 364.37333333l-87.04 301.33333334h-34.88l-87.04-301.33333334h41.81333333l60.90666667 228.16h3.52L578.13333333 364.37333333h41.81333334zM828.90666667 662.18666667h-43.52l-95.78666667-216h-1.70666667v216h-40.10666666V364.37333333h43.52L787.2 580.37333333h1.70666667V364.37333333h40.10666666v297.81333334z" p-id="3752"></path></svg>