<?xml version="1.0" encoding="UTF-8"?>
<svg width="14px" height="14px" viewBox="0 0 14 14" version="1.1" xmlns="http://www.w3.org/2000/svg" xmlns:xlink="http://www.w3.org/1999/xlink">
    <title>icon</title>
    <g id="素材管理+留言反馈" stroke="none" stroke-width="1" fill="none" fill-rule="evenodd">
        <g id="素材管理-素材编辑-新增" transform="translate(-320.000000, -409.000000)">
            <g id="上传视频" transform="translate(239.000000, 152.000000)">
                <g id="icon" transform="translate(80.000000, 257.000000)">
                    <rect id="矩形" fill="#D8D8D8" opacity="0" x="0" y="0" width="14" height="14"></rect>
                    <g id="KHCFDC_视频文件" transform="translate(3.000000, 1.000000)" fill-rule="nonzero">
                        <path d="M1.73671875,0 L7.80338542,0 L11.2700521,3.46666667 L11.2700521,11.2666667 C11.2700521,12.22 10.4900521,13 9.53671875,13 L1.73671875,13 C0.783385421,13 0.0033854209,12.22 0.0033854209,11.2666667 L0.0033854209,1.73333333 C0.0033854209,0.78 0.783385421,0 1.73671875,0 Z M5.63671875,10.8333333 C7.54338542,10.8333333 9.10338542,9.27333333 9.10338542,7.36666667 C9.10338542,5.46000001 7.54338542,3.9 5.63671875,3.9 C3.73005208,3.9 2.17005208,5.46 2.17005208,7.36666667 C2.17005208,9.27333334 3.73005208,10.8333333 5.63671875,10.8333333 Z M5.63671875,9.96666667 C4.16338542,9.96666667 3.03671875,8.84 3.03671875,7.36666667 C3.03671875,5.89333334 4.16338542,4.76666667 5.63671875,4.76666667 C7.11005208,4.76666667 8.23671875,5.89333334 8.23671875,7.36666667 C8.23671875,8.84 7.11005208,9.96666667 5.63671875,9.96666667 L5.63671875,9.96666667 Z M6.93671875,7.62666667 L7.02338542,7.54 C7.11005209,7.36666667 7.11005209,7.19333333 6.93671875,7.10666667 L5.29005208,5.98 C5.29005208,5.98 5.20338541,5.89333333 5.11671875,5.89333333 C4.94338542,5.89333333 4.77005208,6.06666666 4.77005208,6.24 L4.77005208,8.40666667 C4.77005208,8.49333334 4.77005208,8.58 4.85671875,8.58 C4.94338542,8.75333333 5.20338542,8.75333333 5.37671875,8.66666667 L6.93671875,7.62666667 Z" id="形状" fill="#8094C4"></path>
                        <path d="M7.80338542,0 L11.2700521,3.46666667 L8.67005208,3.46666667 C8.15005208,3.46666667 7.80338542,3.12 7.80338542,2.6 L7.80338542,0 Z" id="路径" fill="#CBCDD4" opacity="0.619"></path>
                    </g>
                </g>
            </g>
        </g>
    </g>
</svg>
