<?xml version="1.0" encoding="UTF-8"?>
<svg width="20px" height="20px" viewBox="0 0 20 20" version="1.1" xmlns="http://www.w3.org/2000/svg" xmlns:xlink="http://www.w3.org/1999/xlink">
    <path d="M16.4149743,3 L4.58502566,3 C3.71301049,3 3,3.71838111 3,4.59696459 L3,15.4030354 C3,16.2816189 3.71301049,17 4.58502566,17 L16.4149743,17 C17.2869895,17 18,16.2816189 18,15.4030354 L18,4.59696459 C18,3.71838111 17.2869895,3 16.4149743,3 Z M15.1161571,8.51602024 L13.7420219,11.8397976 C13.9729971,12.0657673 14.1169382,12.3827993 14.1169382,12.7335582 C14.1169382,13.4232715 13.5629324,13.9814503 12.8783754,13.9814503 C12.1938183,13.9814503 11.6398125,13.4232715 11.6398125,12.7335582 C11.6398125,12.5699831 11.6716135,12.4131535 11.7285204,12.2698145 L9.20285651,9.72512648 C9.10410623,9.75042159 9.00033475,9.76391231 8.8932158,9.76391231 C8.72918991,9.76391231 8.57353269,9.73187184 8.42959161,9.67284992 L7.11571078,11.1804384 C7.13914305,11.2765599 7.15253292,11.3777403 7.15253292,11.4822934 C7.15253292,12.1720067 6.59852711,12.7301855 5.9139701,12.7301855 C5.22941308,12.7301855 4.67540728,12.1720067 4.67540728,11.4822934 C4.67540728,10.7925801 5.22941308,10.2344013 5.9139701,10.2344013 C6.15498773,10.2344013 6.38094175,10.3035413 6.57007364,10.4249578 L7.77181433,9.0455312 C7.69649632,8.8836425 7.65465298,8.70489039 7.65465298,8.5143339 C7.65465298,7.82462057 8.20865878,7.26644182 8.8932158,7.26644182 C9.57777282,7.26644182 10.1317786,7.82462057 10.1317786,8.5143339 C10.1317786,8.75885329 10.0614818,8.98650927 9.940973,9.17875211 L12.3461281,11.6020236 C12.5068065,11.5244519 12.685896,11.4822934 12.8767016,11.4822934 L12.9068288,11.4822934 L14.2642267,8.1989882 C14.0081455,7.96964587 13.8457933,7.63743676 13.8457933,7.26475548 C13.8457933,6.57504216 14.3997992,6.01686341 15.0843562,6.01686341 C15.7689132,6.01686341 16.3229229,6.57504216 16.3229229,7.26475548 C16.3245927,7.94772344 15.7856505,8.49915683 15.1161571,8.51602024 Z" id="形状" fill-rule="nonzero"></path>
</svg>
