<?xml version="1.0" encoding="UTF-8"?>
<svg width="16px" height="16px" viewBox="0 0 16 16" version="1.1" xmlns="http://www.w3.org/2000/svg" xmlns:xlink="http://www.w3.org/1999/xlink">
    <title>icon</title>
    <path d="M6.48594272,11.7656352 C6.23070805,11.7656352 6.02187968,11.5568068 6.02187968,11.3015722 L6.02187968,8.62031904 C6.02187968,8.36508437 6.23070805,8.156256 6.48594272,8.156256 C6.74117739,8.156256 6.95000576,8.36508437 6.95000576,8.62031904 L6.95000576,11.3015722 C6.95000576,11.5568068 6.74117739,11.7656352 6.48594272,11.7656352 Z M9.06407072,11.7656352 C8.80883605,11.7656352 8.60000768,11.5568068 8.60000768,11.3015722 L8.60000768,8.62031904 C8.60000768,8.36508437 8.80883605,8.156256 9.06407072,8.156256 C9.31930539,8.156256 9.52813376,8.36508437 9.52813376,8.62031904 L9.52813376,11.3015722 C9.52813376,11.5568068 9.31930539,11.7656352 9.06407072,11.7656352 Z M13.0833723,5.37187776 L10.6625101,5.37187776 L10.6625101,4.31484528 C10.6625101,3.59039131 10.0721188,3 9.3476648,3 L6.20234864,3 C5.47789467,3 4.88750336,3.59039131 4.88750336,4.31484528 L4.88750336,5.37187776 L2.46664117,5.37187776 C2.21011743,5.37187776 2,5.58070613 2,5.8359408 C2,6.09117547 2.21011743,6.30000384 2.46664117,6.30000384 L3.65000192,6.30000384 L3.65000192,12.9773554 C3.65000192,13.1887619 3.69125197,13.3950121 3.77375206,13.5896608 C3.85238497,13.776575 3.9658226,13.9454424 4.11019777,14.0898176 C4.25457294,14.2341928 4.42215126,14.3476304 4.6103546,14.4262633 C4.80500326,14.5087634 5.0112535,14.5500134 5.22266,14.5500134 L10.3273534,14.5500134 C10.5387599,14.5500134 10.7450102,14.5087634 10.9396588,14.4262633 C11.1265731,14.3476304 11.2954405,14.2341928 11.4398157,14.0898176 C11.5841908,13.9454424 11.6976285,13.7778641 11.7762614,13.5896608 C11.8587615,13.3950121 11.9000115,13.1887619 11.9000115,12.9773554 L11.9000115,6.30000384 L13.0833723,6.30000384 C13.339896,6.30000384 13.5500134,6.09117547 13.5500134,5.8359408 C13.5500134,5.58070613 13.339896,5.37187776 13.0833723,5.37187776 Z M5.81562944,4.31484528 C5.81562944,4.10086066 5.98836402,3.92812608 6.20234864,3.92812608 L9.3476648,3.92812608 C9.56164942,3.92812608 9.734384,4.10086066 9.734384,4.31484528 L9.734384,5.37187776 L5.81562944,5.37187776 L5.81562944,4.31484528 Z M10.9718854,12.9773554 C10.9718854,13.333137 10.6831351,13.6218874 10.3273534,13.6218874 L5.22266,13.6218874 C4.86687834,13.6218874 4.578128,13.333137 4.578128,12.9773554 L4.578128,6.30000384 L10.9718854,6.30000384 L10.9718854,12.9773554 Z" id="形状" fill-rule="nonzero"></path>
    <rect id="矩形" opacity="0" x="0" y="0" width="16" height="16"></rect>
</svg>
