<?xml version="1.0" encoding="UTF-8"?>
<svg viewBox="0 0 18 18" version="1.1" xmlns="http://www.w3.org/2000/svg" xmlns:xlink="http://www.w3.org/1999/xlink">
    <path d="M8.86211094,13.9396241 L8.86211094,13.9396241 C8.89789466,14.0028495 8.94838968,14.0390944 9.00142682,14.0396241 L9.00142682,14.0396241 C9.05446388,14.0390945 9.10495881,14.0028495 9.14074271,13.9396241 L8.86211094,13.9396241 L8.86211094,13.9396241 Z M9.14074271,13.9396241 L12.8816322,9.90863647 C13.046174,9.7314817 13.0358543,9.43679707 12.8713125,9.26021562 L12.8713125,9.26021563 C12.7248768,9.09637435 12.4733476,9.0822636 12.3095064,9.22869926 C12.2986117,9.23843651 12.2882617,9.2487665 12.2785034,9.25964232 L9.00085352,12.7872581 L5.72435029,9.25964232 L5.7243503,9.25964232 C5.57730001,9.09592645 5.32537493,9.08241589 5.16165817,9.22946554 C5.15087632,9.23914984 5.1406308,9.24941507 5.13096737,9.26021564 C4.96642557,9.43679709 4.95610587,9.73205503 5.12064768,9.90863648 L8.86153719,13.9396241 L9.14074227,13.9396241 L9.14074271,13.9396241 Z M8.85924435,10.8121831 L8.85924435,10.8121831 C8.89502808,10.8754085 8.9455231,10.9116535 8.99856024,10.9121831 L8.99856023,10.9121831 C9.05156736,10.9114299 9.1020098,10.8752228 9.13787612,10.8121831 L8.85924435,10.8121831 L8.85924435,10.8121831 Z M9.13787613,10.8121831 L12.8787656,6.78119551 C13.0433074,6.60404074 13.0335611,6.30935611 12.8690193,6.13277466 L12.8690193,6.13277467 C12.7222861,5.96877483 12.470387,5.95477695 12.3063872,6.10151056 C12.2955866,6.11117399 12.2853213,6.12141942 12.2756371,6.13220136 L8.99856052,9.65981716 L5.72148398,6.13220136 L5.72148398,6.13220136 C5.5744337,5.96848549 5.32250862,5.95497493 5.15879185,6.10202458 C5.14801001,6.11170888 5.13776449,6.12197411 5.12810106,6.13277468 C4.96413257,6.30935613 4.95381288,6.60404076 5.118928,6.78119552 L8.85981751,10.8121831 L9.13787596,10.8121831 L9.13787613,10.8121831 Z" id="形状" fill-rule="nonzero"></path>
</svg>
