<svg t="1650420984109" class="icon" viewBox="0 0 1024 1024" version="1.1" xmlns="http://www.w3.org/2000/svg" p-id="12552" width="200" height="200"><path d="M821.290667 554.666667a21.333333 21.333333 0 0 1 21.333333 21.333333v220.394667l62.656-62.677334a21.333333 21.333333 0 0 1 30.165333 0l30.165334 30.186667a21.333333 21.333333 0 0 1 0 30.165333l-150.826667 150.826667a21.333333 21.333333 0 0 1-30.186667 0l-150.826666-150.826667a21.333333 21.333333 0 0 1 0-30.165333l30.144-30.186667a21.333333 21.333333 0 0 1 30.186666 0l63.189334 63.232V576a21.333333 21.333333 0 0 1 21.333333-21.333333h42.666667zM597.333333 128c205.226667 0 372.842667 160.981333 383.466667 363.562667h-85.482667C884.8 336.149333 755.413333 213.333333 597.333333 213.333333a298.816 298.816 0 0 0-283.989333 205.866667l-14.357333 43.946667-44.672 11.989333A170.773333 170.773333 0 0 0 128 640a170.666667 170.666667 0 0 0 170.666667 170.666667h230.762666l81.877334 85.077333c-4.629333 0.170667-9.301333 0.256-13.973334 0.256H298.666667C157.290667 896 42.666667 781.376 42.666667 640c0-118.4 80.384-218.026667 189.546666-247.296C282.410667 239.04 426.901333 128 597.333333 128z" p-id="12553"></path></svg>