<?xml version="1.0" encoding="UTF-8"?>
<svg width="16px" height="16px" viewBox="0 0 16 16" version="1.1" xmlns="http://www.w3.org/2000/svg" xmlns:xlink="http://www.w3.org/1999/xlink">
    <title>icon</title>
    <rect id="矩形" opacity="0" x="0" y="0" width="16" height="16"></rect>
    <path d="M11.908737,14.9268383 L4.09128003,14.9268383 C2.97838811,14.9268383 2.07317872,14.021629 2.07317872,12.908737 L2.07317872,5.09128003 C2.07317872,3.97838811 2.97838811,3.07317872 4.09128003,3.07317872 L8.00000853,3.07317872 C8.3938892,3.07317872 8.71472291,3.39258013 8.71472291,3.78789309 C8.71472291,4.18320605 8.39532149,4.50260747 8.00000853,4.50260747 L4.09128003,4.50260747 C3.76614944,4.50260747 3.50117517,4.76758173 3.50117517,5.09271232 L3.50117517,12.908737 C3.50117517,13.2338676 3.76614944,13.4988419 4.09128003,13.4988419 L11.9073047,13.4988419 C12.2324353,13.4988419 12.4974096,13.2338676 12.4974096,12.908737 L12.4974096,9.00000853 C12.4974096,8.60469557 12.816811,8.28529416 13.212124,8.28529416 C13.6060046,8.28529416 13.9268383,8.60469557 13.9268383,9.00000853 L13.9268383,12.9073047 C13.9268383,14.021629 13.0201967,14.9268383 11.908737,14.9268383 L11.908737,14.9268383 Z M6.79115296,10.9235785 C6.60781941,10.9235785 6.42591816,10.8533961 6.28555341,10.7144637 C6.00625621,10.4351665 6.00625621,9.98399405 6.28555341,9.70469685 L12.3613417,3.62890853 C12.6406389,3.34961133 13.0918113,3.34961133 13.3711085,3.62890853 C13.6504057,3.90820573 13.6504057,4.35937813 13.3711085,4.63867533 L7.29532021,10.7144637 C7.15638776,10.8533961 6.97305421,10.9235785 6.79115296,10.9235785 Z" id="形状" fill-rule="nonzero"></path>
</svg>
