<?xml version="1.0" encoding="UTF-8"?>
<svg width="18px" height="18px" viewBox="0 0 18 18" version="1.1" xmlns="http://www.w3.org/2000/svg" xmlns:xlink="http://www.w3.org/1999/xlink">
<path d="M4.09935545,7.30000022 L14.8133551,7.30000022 C15.1283617,7.30000022 15.4282407,7.43510583 15.6370035,7.67100254 C15.8457663,7.90689924 15.9433784,8.22097732 15.9051051,8.53365018 L15.2319051,14.03365 C15.1643769,14.5853204 14.6959431,15 14.1401552,15 L4.77255542,15 C4.21697714,14.9996714 3.74885813,14.5851124 3.68135546,14.03365 L3.00815547,8.53365018 C2.96989376,8.22107247 3.06743445,7.90708547 3.27607474,7.67120837 C3.48471504,7.43533126 3.78444475,7.30018645 4.09935545,7.30000022 Z M5.30935542,4.00000015 L7.78435534,4.00000015 C7.98500058,3.99989517 8.18185301,4.0546715 8.35360533,4.15840031 L9.45635529,4.82500028 L13.7738552,4.82500028 C14.2061552,4.82500028 14.5906051,5.10220027 14.7270051,5.51250027 L14.8359051,5.83810026 C14.863854,5.92201375 14.8497371,6.01424843 14.797969,6.08596088 C14.7462009,6.15767333 14.6631006,6.20011002 14.5746551,6.20000046 L4.29460544,6.20000046 C4.21178026,6.2000855 4.13332806,6.16283613 4.08104286,6.09860003 C4.02875766,6.03436394 4.00820906,5.94998373 4.02510545,5.86890026 L4.23245544,4.87560029 C4.33874678,4.36552119 4.7883194,4.00000015 5.30935542,4.00000015 Z" id="形状" fill-rule="nonzero"></path>
</svg>
