<?xml version="1.0" encoding="UTF-8"?>
<svg viewBox="0 0 16 16" version="1.1" xmlns="http://www.w3.org/2000/svg" xmlns:xlink="http://www.w3.org/1999/xlink">
    <path d="M13.6109636,10.1917516 C13.6366142,10.4140562 13.6665398,10.6641486 13.7007405,10.9420303 C13.7349412,11.2199106 13.7670043,11.5042041 13.79693,11.7949106 C13.8268556,12.0856172 13.8589187,12.3741856 13.8931195,12.6606159 C13.9273202,12.9470475 13.9572459,13.2056899 13.9828963,13.4365443 C14.0341974,13.8384025 13.8589187,14.0265061 13.4570603,14.0008563 C13.2433057,13.9837559 13.0017632,13.960243 12.7324327,13.9303173 C12.4631023,13.9003917 12.1873588,13.8683285 11.9052034,13.8341278 C11.6230481,13.7999271 11.3430296,13.7657263 11.065148,13.7315257 C10.7872676,13.697325 10.5328989,13.6673993 10.3020444,13.6417489 C10.0540888,13.6160983 9.89591128,13.5455594 9.82750929,13.4301324 C9.75910781,13.314705 9.79758364,13.1843149 9.94293666,13.0389623 C10.0369886,12.9534604 10.1524163,12.8358957 10.289219,12.6862668 C10.4260217,12.5366392 10.5414496,12.4147983 10.6355014,12.3207465 C10.7295533,12.2181444 10.7594789,12.124093 10.7252782,12.0385912 C10.6910774,11.9530894 10.6226761,11.8547626 10.5200735,11.7436097 C10.2806691,11.5127552 10.0626395,11.3032755 9.86598474,11.115172 C9.66933125,10.9270684 9.45130167,10.7090388 9.21189598,10.4610832 C9.16059487,10.4097821 9.10929389,10.354206 9.05799214,10.2943545 C9.00669104,10.2345032 8.9682152,10.1682393 8.94256478,10.0955629 C8.91691422,10.0228863 8.91263913,9.94593528 8.9297395,9.8647084 C8.94683987,9.78348164 9.00241607,9.69584282 9.09646823,9.60179104 C9.14776934,9.55048993 9.19052026,9.50560153 9.224721,9.46712519 C9.25892174,9.42864935 9.29312248,9.39444861 9.32732309,9.3645231 C9.36152383,9.33459745 9.39786205,9.30039671 9.43633789,9.26192101 C9.47481372,9.22344517 9.52397722,9.17000658 9.58382864,9.10160536 C9.75483233,8.93060166 9.91301114,8.85792471 10.0583638,8.88357577 C10.2037164,8.90922633 10.3618952,9.00755333 10.5328989,9.17855728 C10.7039026,9.34956097 10.8791813,9.52270151 11.0587349,9.69798018 C11.2382885,9.87325884 11.4392182,10.0720504 11.6615228,10.294355 C11.8239766,10.4482588 11.9629161,10.5551355 12.078344,10.6149863 C12.1937713,10.6748376 12.3070616,10.649187 12.4182132,10.5380346 C12.4951649,10.461083 12.5913538,10.369169 12.7067817,10.2622911 C12.822209,10.1554139 12.9226731,10.0592245 13.008175,9.97372268 C13.1535276,9.82837005 13.2839185,9.77279295 13.3993451,9.80699395 C13.5147725,9.84119469 13.5853118,9.96944771 13.6109616,10.1917523 L13.6109636,10.1917516 Z M2.42732905,5.83115992 C2.4016785,5.60885537 2.37175285,5.35876291 2.33755211,5.08088127 C2.30335137,4.8030009 2.27128824,4.51870745 2.24136259,4.22800091 C2.21143695,3.93729437 2.17937382,3.64872595 2.14517308,3.36229565 C2.11097234,3.07586408 2.08104669,2.81722169 2.05539627,2.58636721 C2.02974571,2.36406266 2.05753381,2.21015882 2.1387605,2.12465697 C2.21998726,2.03915512 2.36320318,2.00495451 2.56840659,2.02205488 C2.78216121,2.03915525 3.02370374,2.0626682 3.29303418,2.09259384 C3.56236462,2.12251949 3.83810814,2.15458262 4.12026347,2.18878336 C4.40241881,2.2229841 4.6824373,2.25718484 4.96031894,2.29138545 C5.23819931,2.32558619 5.49256801,2.35551183 5.72342249,2.38116239 C5.97992803,2.40681294 6.14024368,2.4773519 6.20436943,2.59277889 C6.26849582,2.70820626 6.22788237,2.83859638 6.08252936,2.98394902 C5.99702751,3.06945086 5.89228768,3.1806025 5.76830988,3.31740648 C5.64433232,3.45420918 5.53531728,3.56963706 5.4412655,3.66368884 C5.33866341,3.76629093 5.3044628,3.86034232 5.33866341,3.94584417 C5.37286415,4.03134589 5.44554059,4.12967276 5.55669299,4.24082567 C5.66784527,4.36052813 5.77258446,4.46526834 5.87091248,4.55504516 C5.96923947,4.6448221 6.06542912,4.73459878 6.15948089,4.8243756 C6.2535328,4.91415241 6.35185941,5.01034231 6.4544624,5.11294401 L6.77509369,5.43357531 C6.8263948,5.48487642 6.8755583,5.54472758 6.92258444,5.61312893 C6.96961046,5.68153041 7.0038112,5.7542066 7.02518653,5.83115852 C7.046562,5.90811018 7.04442439,5.98933732 7.01877389,6.07483917 C6.99312334,6.16034102 6.93754714,6.24584286 6.85204516,6.33134471 L6.7109675,6.47242238 C6.67676676,6.50662312 6.64470363,6.54082386 6.61477798,6.57502447 C6.58485233,6.60922521 6.54851411,6.64342595 6.50576319,6.67762656 L6.36468552,6.8315304 C6.19368183,7.00253409 6.04619107,7.06665984 5.92221327,7.02390892 C5.79823571,6.98115799 5.65074471,6.87428132 5.47974101,6.70327762 C5.30873731,6.53227393 5.14628355,6.37195828 4.99238099,6.22233069 C4.83847715,6.07270309 4.65037359,5.88673638 4.42806904,5.66443183 C4.27416521,5.51052799 4.1373625,5.40365132 4.01766094,5.34380054 C3.89795848,5.28394924 3.78253149,5.3095998 3.67137858,5.4207522 C3.59442692,5.50625405 3.48754999,5.61099387 3.35074729,5.73497168 C3.21394459,5.85894923 3.10279167,5.96368932 3.01728982,6.04919117 C2.87193719,6.1945438 2.74368442,6.25012089 2.63253151,6.2159199 C2.52137923,6.18171916 2.45297788,6.05346613 2.42732682,5.83116158 L2.42732905,5.83115992 Z M13.4314126,2.0092342 C13.6537171,1.98358365 13.807621,2.01137175 13.8931228,2.09259844 C13.9786247,2.17382519 14.0128253,2.32131607 13.9957249,2.53507069 C13.9786245,2.74882531 13.9551116,2.99036784 13.9251859,3.25969828 C13.8952603,3.52902872 13.8631972,3.80477225 13.8289964,4.08692758 C13.7947957,4.36908291 13.7605949,4.6491014 13.7263943,4.92698305 C13.6921936,5.20486341 13.6622679,5.45923212 13.6366175,5.69008659 C13.610967,5.93804221 13.540428,6.09621974 13.425001,6.16462172 C13.3095737,6.2330232 13.1791835,6.19027228 13.0338309,6.03636895 C12.948329,5.9508671 12.8371774,5.84612728 12.7003734,5.72214947 C12.5635707,5.59817192 12.4481429,5.48915687 12.3540911,5.39510509 C12.251489,5.30105319 12.1574376,5.26898993 12.0719357,5.29891558 C11.986434,5.32884122 11.8881071,5.39938018 11.7769542,5.51053208 C11.5460998,5.74138655 11.3430332,5.95086621 11.1677545,6.13896977 C10.9924759,6.32707332 10.7851343,6.54082794 10.5457286,6.78023363 C10.4944275,6.83153474 10.4345764,6.88069824 10.366175,6.92772438 C10.2977735,6.9747504 10.2250974,7.00895114 10.1481454,7.03032647 C10.0711938,7.05170193 9.98996663,7.04956432 9.90446478,7.02391383 C9.81896293,6.99826328 9.73346108,6.93841198 9.64795924,6.84436021 C9.59665813,6.7930591 9.55176972,6.75030817 9.51329338,6.71610743 C9.47481755,6.68190669 9.43847933,6.64770595 9.40427859,6.61350534 C9.37007785,6.5793046 9.33373963,6.54510386 9.29526379,6.51090325 C9.25678796,6.47670251 9.20762446,6.4254014 9.14777304,6.35699942 C8.97676935,6.18599572 8.90836863,6.03636812 8.94256835,5.90811535 C8.97676909,5.77986258 9.08364602,5.63023498 9.26319964,5.45923129 L9.75055967,4.9462202 C9.91301343,4.7752165 10.105392,4.57856302 10.3276965,4.35625847 C10.4901503,4.20235463 10.6013019,4.06555193 10.661154,3.94585036 C10.7210053,3.8261479 10.6910796,3.71499588 10.5713772,3.6123929 C10.4944255,3.53544123 10.3960985,3.43070115 10.2763957,3.29817341 C10.1566932,3.16564568 10.0540911,3.05663088 9.96858925,2.97112904 C9.82323662,2.8257764 9.76765953,2.69752363 9.80186052,2.58637072 C9.83606126,2.47521844 9.96431429,2.40681709 10.1866188,2.38116603 C10.4089234,2.35551547 10.6590158,2.32558983 10.9368975,2.29138909 C11.2147779,2.25718835 11.5012094,2.22512522 11.7961909,2.19519957 C12.0911724,2.16527392 12.3797409,2.1332108 12.6618962,2.09901006 C12.9440515,2.06480932 13.2005571,2.03488367 13.4314128,2.00923312 L13.4314126,2.0092342 Z M6.33904307,9.1016037 C6.39034418,9.15290481 6.43523259,9.19565573 6.47370893,9.22985647 C6.51218476,9.26405721 6.54852298,9.29825795 6.58272372,9.33245856 L6.68532581,9.44788593 L6.83922965,9.5889636 C7.01023335,9.75996729 7.08504715,9.91600797 7.06367232,10.0570856 C7.04229686,10.1981633 6.94183225,10.358479 6.76227901,10.5380326 C6.59982524,10.7004863 6.42882155,10.8736269 6.24926792,11.0574555 C6.06971429,11.2412841 5.86878457,11.4443506 5.64648002,11.6666552 C5.49257618,11.820559 5.39638756,11.9466737 5.3579116,12.0450004 C5.31943577,12.1433274 5.35577405,12.248067 5.46692639,12.3592199 C5.55242824,12.4361716 5.64861814,12.5323604 5.75549481,12.6477883 C5.86237199,12.7632157 5.95856138,12.8636798 6.04406323,12.9491816 C6.18941586,13.0945343 6.24285483,13.222787 6.20437887,13.33394 C6.16590304,13.4450922 6.0355133,13.5134936 5.81320875,13.5391446 C5.5909042,13.5647952 5.34294858,13.5947208 5.06934318,13.6289215 C4.79573778,13.6631222 4.51144432,13.6973229 4.21646282,13.7315235 C3.92148132,13.7657243 3.63077605,13.799925 3.34434448,13.8341256 C3.0579129,13.8683264 2.79927052,13.898252 2.56841604,13.9239024 C2.35466142,13.9410028 2.2028957,13.9089397 2.11311889,13.8277129 C2.02334195,13.7464862 1.98700372,13.6032703 2.00410409,13.3980668 C2.02120446,13.1843122 2.04471741,12.9427697 2.07464305,12.6734393 C2.1045687,12.4041088 2.13663183,12.1283653 2.17083257,11.84621 C2.20503331,11.5640546 2.23923405,11.2840361 2.27343466,11.0061545 C2.3076354,10.7282741 2.33756105,10.4739054 2.3632116,10.2430509 C2.38886215,9.9865454 2.45940112,9.82622976 2.5748281,9.76210401 C2.69025547,9.69797762 2.82064559,9.73859106 2.96599823,9.88394408 C3.05150007,9.96944593 3.1690648,10.0805976 3.31869367,10.2174015 C3.46832126,10.3542042 3.59016223,10.4696321 3.68421401,10.5636839 C3.7868161,10.666286 3.87231756,10.7111747 3.94071955,10.6983498 C4.00912103,10.6855245 4.09462339,10.6235357 4.19722509,10.512383 C4.30837737,10.4012308 4.41525468,10.2922153 4.51785639,10.1853387 C4.62045848,10.0784615 4.72306108,9.97372217 4.82566279,9.87111918 C4.92826488,9.76851709 5.03300432,9.66163953 5.13988227,9.55048789 C5.24675945,9.43933562 5.36004997,9.32390838 5.47975154,9.20420553 C5.53105265,9.15290443 5.58662872,9.10160344 5.64648027,9.0503017 C5.70633157,8.99900059 5.77259544,8.96052476 5.84527188,8.93487433 C5.91794845,8.90922378 5.99489947,8.90708629 6.07612636,8.92846169 C6.15735311,8.94983715 6.24499193,9.00755084 6.33904371,9.10160223 L6.33904307,9.1016037 Z" id="形状" fill-rule="nonzero"></path>
</svg>
