<?xml version="1.0" encoding="UTF-8"?>
<svg width="16px" height="16px" viewBox="0 0 16 16" version="1.1" xmlns="http://www.w3.org/2000/svg" xmlns:xlink="http://www.w3.org/1999/xlink">
<path d="M3.98666368,3.20837188 L4.77768381,3.99957086 C5.73722941,3.57915583 6.83381948,3.41674377 7.87627219,3.41674377 C9.05704621,3.41674377 10.3072775,3.69457295 11.4185942,4.25023131 C12.2520818,4.59751778 12.9466547,5.22263344 13.5023131,5.91720639 C13.8495996,6.40340745 14.196886,6.95906581 14.4052579,7.51472417 C14.5441725,7.86201064 14.6830871,8.13983982 14.7525444,8.4871263 C14.6830871,8.83441277 14.5441725,9.11224195 14.4747152,9.52898572 C14.196886,10.1541014 13.9190568,10.7097597 13.5023131,11.1959608 C13.2757475,11.4791678 13.0260868,11.7392796 12.753331,11.9762964 L13.3633985,12.5851067 C13.6412277,12.8629359 13.6412277,13.2102223 13.3633985,13.4880515 C13.0855693,13.7658807 12.7382828,13.7658807 12.4604537,13.4880515 L11.69,12.718 L11.4185942,12.8629359 C10.4083063,13.3680798 9.34061566,13.5862102 8.21552229,13.6216955 L7.87627219,13.6269661 C6.69549818,13.6269661 5.51472417,13.4185942 4.40340745,12.8629359 C3.63937721,12.4461921 2.87534696,11.8210765 2.3196886,11.1265035 C1.90294483,10.5708451 1.55565836,10.0151868 1.34728647,9.45952842 C1.20837188,9.11224195 1.06945729,8.83441277 1,8.4871263 C1.06945729,8.13983982 1.20837188,7.86201064 1.34728647,7.51472417 C1.62511565,6.88960851 1.90294483,6.33395015 2.3196886,5.84774909 C2.68987239,5.38501936 3.12171097,4.98394444 3.61520437,4.64452432 L3.08371885,4.11131672 C2.73643237,3.83348754 2.73643237,3.48620106 3.08371885,3.20837188 C3.36154803,2.93054271 3.7088345,2.93054271 3.98666368,3.20837188 Z M4.37615352,5.40500708 C3.88161494,5.72038504 3.4616799,6.11036655 3.08371885,6.54232204 C2.66697508,7.0979804 2.3196886,7.79255335 2.11131672,8.4871263 C2.3196886,9.18169924 2.66697508,9.8068149 3.15317614,10.4319306 C3.63937721,10.9875889 4.19503556,11.47379 4.88960851,11.8210765 C5.79255335,12.2378202 6.83441277,12.4461921 7.87627219,12.4461921 C8.91813162,12.5156494 9.89053375,12.2378202 10.8629359,11.8210765 L10.813,11.841 L9.52233423,10.5510467 C9.11178821,10.87881 8.601125,11.0865473 8.04328822,11.1213148 L7.87627219,11.1265035 C6.417669,11.1265035 5.23689499,9.94572949 5.23689499,8.4871263 C5.23689499,7.86394743 5.45243003,7.2914827 5.81308145,6.84015077 Z M7.87627219,4.52806049 C7.06991971,4.47766346 6.33670168,4.61010256 5.62355299,4.84578013 L6.83797798,6.05951932 C7.15659913,5.92320094 7.50755897,5.84774909 7.87627219,5.84774909 C9.33487539,5.84774909 10.5156494,7.0285231 10.5156494,8.4871263 C10.5156494,8.85600382 10.4401303,9.20711213 10.3036969,9.52584643 L11.9035082,11.1258365 C12.1532644,10.9123374 12.3831824,10.6790001 12.5993682,10.4319306 C13.016112,9.8068149 13.3633985,9.18169924 13.5717704,8.4871263 C13.3633985,7.79255335 13.016112,7.16743769 12.5993682,6.54232204 C12.1131672,5.98666368 11.5575088,5.50046262 10.8629359,5.15317614 C9.95999104,4.73643237 8.91813162,4.52806049 7.87627219,4.52806049 Z M6.61092687,7.63884022 C6.44549178,7.88272952 6.34821171,8.1751999 6.34821171,8.4871263 C6.34821171,9.32061383 7.04278465,10.0151868 7.87627219,10.0151868 C8.18819859,10.0151868 8.48066897,9.91790671 8.72455827,9.75247162 Z M7.87627219,6.95906581 C7.83164504,6.95906581 7.78741613,6.96105702 7.74367076,6.96495416 L9.397,8.619 L9.40433268,8.4871263 C9.40433268,8.11668739 9.29457301,7.74624848 9.07505365,7.52215581 L8.98758891,7.44526687 C8.70975973,7.0979804 8.29301596,6.95906581 7.87627219,6.95906581 Z" id="形状结合" fill-rule="nonzero"></path>
</svg>
