<svg t="1620351313665" class="icon" viewBox="0 0 1229 1024" version="1.1" xmlns="http://www.w3.org/2000/svg" p-id="42300" width="200" height="200"><path d="M1106.169237 0.02048 82.701706 0.02048C25.973241 0.02048 0.01536 53.062619 0.01536 109.381492L0.01536 929.48669C0.01536 985.447171 26.02444 1024 82.701706 1024L1106.169237 1024C1162.897702 1024 1228.790784 985.805564 1228.790784 929.48669L1228.790784 109.381492C1228.790784 53.421012 1162.846503 0.02048 1106.169237 0.02048L1106.169237 0.02048 1106.169237 0.02048 1106.169237 0.02048ZM1126.223876 444.919102 1050.910182 402.98714C979.846003 363.461531 883.540729 380.305994 830.703386 441.437571L642.239955 659.545209C620.582788 684.530309 575.271695 693.541329 545.525089 678.744825L428.893822 620.633987C356.242475 584.436311 260.961181 606.963861 212.424552 671.935361L102.397952 819.183616 102.602748 102.858743 1126.326273 102.397952 1126.223876 444.919102 1126.223876 444.919102 1126.223876 444.919102ZM1126.751225 921.602048 153.612288 921.602048 294.972661 724.089055C313.865083 697.160431 355.336253 690.660419 383.751685 705.736075L500.382952 767.731999C571.959121 805.748877 667.957201 785.37489 720.231355 720.866361L908.694786 488.176827C929.737565 462.231398 972.898302 452.180958 1001.620928 469.27763L1126.853623 539.739953 1126.751225 921.602048 1126.751225 921.602048 1126.751225 921.602048ZM338.445711 519.439211C423.282414 519.439211 492.042639 450.678986 492.042639 365.842283 492.042639 281.00558 423.282414 212.245355 338.445711 212.245355 253.609008 212.245355 184.848783 281.00558 184.848783 365.842283 184.848783 450.678986 253.609008 519.439211 338.445711 519.439211L338.445711 519.439211 338.445711 519.439211ZM338.445711 314.643307C366.707546 314.643307 389.644687 337.580448 389.644687 365.842283 389.644687 394.104118 366.707546 417.041259 338.445711 417.041259 310.183876 417.041259 287.246735 394.104118 287.246735 365.842283 287.246735 337.580448 310.183876 314.643307 338.445711 314.643307L338.445711 314.643307 338.445711 314.643307Z" p-id="42301"></path></svg>
