<?xml version="1.0" encoding="UTF-8"?>
<svg width="20px" height="20px" viewBox="0 0 20 20" version="1.1" xmlns="http://www.w3.org/2000/svg" xmlns:xlink="http://www.w3.org/1999/xlink">
<path d="M16.0463023,14.2716074 L13.1302762,14.2716074 C12.1494909,15.2225991 10.6445905,16.9287911 10.6445905,16.9287911 C10.5534296,17.0237363 10.4050225,17.0237363 10.3141663,16.9287911 C10.3141663,16.9287911 8.25824366,14.8007094 7.76158115,14.2716074 L4.91247054,14.2716074 C3.85601441,14.2716074 3,13.2842796 3,12.213071 L3,4.93977872 C3,3.86858612 3.83731721,3 4.8698005,3 L16.0886516,3 C17.1214236,3 17.9584521,3.86858612 17.9584521,4.93977872 L17.9584521,12.213071 C17.9584521,13.2841193 17.1024538,14.2716074 16.0463023,14.2716074 L16.0463023,14.2716074 Z M6.73961705,7.83186405 C6.2233754,7.83186405 5.80470878,8.26616513 5.80470878,8.80182558 C5.80470878,9.3373417 6.22335936,9.77164278 6.73961705,9.77164278 C7.25587473,9.77164278 7.67452531,9.3373417 7.67452531,8.80182558 C7.67452531,8.26616513 7.25585868,7.83186405 6.73961705,7.83186405 L6.73961705,7.83186405 Z M10.4792341,7.83186405 C9.96299243,7.83186405 9.54432581,8.26616513 9.54432581,8.80182558 C9.54432581,9.3373417 9.96328107,9.77164278 10.4792341,9.77164278 C10.9954757,9.77164278 11.4141423,9.3373417 11.4141423,8.80182558 C11.4141423,8.26616513 10.9954757,7.83186405 10.4792341,7.83186405 L10.4792341,7.83186405 Z M14.2188511,7.83186405 C13.7028981,7.83186405 13.2839429,8.26616513 13.2839429,8.80182558 C13.2839429,9.3373417 13.7028981,9.77164278 14.2188511,9.77164278 C14.7353975,9.77164278 15.1537594,9.3373417 15.1537594,8.80182558 C15.1537594,8.26616513 14.7353975,7.83186405 14.2188511,7.83186405 L14.2188511,7.83186405 Z" id="形状" fill-rule="nonzero"></path>
</svg>
