<?xml version="1.0" encoding="UTF-8"?>
<svg viewBox="0 0 40 40" version="1.1" xmlns="http://www.w3.org/2000/svg" xmlns:xlink="http://www.w3.org/1999/xlink">
    <path d="M21.0000186,4 C29.8000289,4 37.0000372,11.2000084 37.0000372,20.0000186 C37.0000372,28.8000289 29.8000289,36.0000372 21.0000186,36.0000372 C12.2000084,36.0000372 5,28.8000289 5,20.0000186 C5,11.2000084 12.2000084,4 21.0000186,4 Z M21.0000186,5.3333453 C12.933353,5.3333453 6.3333453,11.933353 6.3333453,20.0000186 C6.3333453,28.0666843 12.933353,34.6666919 21.0000186,34.6666919 C29.0666843,34.6666919 35.6666919,28.0666843 35.6666919,20.0000186 C35.6666919,11.933353 29.0666843,5.3333453 21.0000186,5.3333453 Z M17.5018315,14 C18.3296703,14 19.003663,14.6389293 19.003663,15.4314809 L19.003663,24.5685191 C19.003663,25.3575793 18.3333333,26 17.5018315,26 C16.6739927,26 16,25.3610707 16,24.5685191 L16,15.4314809 C16,14.6424207 16.6739927,14 17.5018315,14 Z M24.4981685,14 C25.3260073,14 26,14.6389293 26,15.4314809 L26,24.5685191 C26,25.3575793 25.3296703,26 24.4981685,26 C23.6703297,26 22.996337,25.3610707 22.996337,24.5685191 L22.996337,15.4314809 C22.996337,14.6424207 23.6703297,14 24.4981685,14 Z" id="形状结合"></path>
</svg>
