<svg viewBox="0 0 40 40" version="1.1" xmlns="http://www.w3.org/2000/svg" xmlns:xlink="http://www.w3.org/1999/xlink">
    <path d="M20.0000186,4 C11.2000084,4 4,11.2000084 4,20.0000186 C4,28.8000289 11.2000084,36.0000372 20.0000186,36.0000372 C28.8000289,36.0000372 36.0000372,28.8000289 36.0000372,20.0000186 C36.0000372,11.2000084 28.8000289,4 20.0000186,4 Z M20.0000186,34.6666919 C11.933353,34.6666919 5.3333453,28.0666843 5.3333453,20.0000186 C5.3333453,11.933353 11.933353,5.3333453 20.0000186,5.3333453 C28.0666843,5.3333453 34.6666919,11.933353 34.6666919,20.0000186 C34.6666919,28.0666843 28.0666843,34.6666919 20.0000186,34.6666919 Z M25.0000244,17.8000161 L19.6666745,14.2666682 C17.8666724,13.0666668 16.3333269,13.8666677 16.3333269,16.0666703 L16.3333269,24.0666796 C16.3333269,26.2666822 17.7999942,27.0666831 19.6666745,25.8666817 L25.0000244,22.3333338 C26.8000265,20.9999979 26.8000265,18.9999862 25.0000244,17.7999848 L25.0000244,17.8000161 Z" id="形状"></path>
</svg>
