<?xml version="1.0" encoding="UTF-8"?>
<svg width="20px" height="20px" viewBox="0 0 20 20" version="1.1" xmlns="http://www.w3.org/2000/svg" xmlns:xlink="http://www.w3.org/1999/xlink">
    <path d="M6.5018315,4 C7.32967033,4 8.003663,4.6389293 8.003663,5.43148094 L8.003663,14.5685191 C8.003663,15.3575793 7.33333333,16 6.5018315,16 C5.67399267,16 5,15.3610707 5,14.5685191 L5,5.43148094 C5,4.64242072 5.67399267,4 6.5018315,4 Z M13.4981685,4 C14.3260073,4 15,4.6389293 15,5.43148094 L15,14.5685191 C15,15.3575793 14.3296703,16 13.4981685,16 C12.6703297,16 11.996337,15.3610707 11.996337,14.5685191 L11.996337,5.43148094 C11.996337,4.64242072 12.6703297,4 13.4981685,4 Z" id="形状" fill-rule="nonzero"></path>
</svg>
