<?xml version="1.0" encoding="UTF-8"?>
<svg width="16px" height="16px" viewBox="0 0 16 16" version="1.1" xmlns="http://www.w3.org/2000/svg" xmlns:xlink="http://www.w3.org/1999/xlink">
<path d="M13.5833219,10.4499926 L12.2166531,10.4499926 L12.2166531,8.5833267 C12.2166531,8.34999317 12.0333205,8.16666053 11.7999869,8.16666053 L8.3666629,8.16666053 L8.3666629,7.23332878 L9.63332521,7.23332878 C9.86665875,7.23332878 10.0499914,7.04999614 10.0499914,6.81666261 L10.0499914,3.41666617 C10.0499914,3.18333264 9.86665875,3 9.63332521,3 L6.24999851,3 C6.01666498,3 5.83333234,3.18333264 5.83333234,3.41666617 L5.83333234,6.81666261 C5.83333234,7.04999614 6.01666498,7.23332878 6.24999851,7.23332878 L7.5500003,7.23332878 L7.5500003,8.16666053 L4.20000119,8.16666053 C3.96666766,8.16666053 3.78333502,8.34999317 3.78333502,8.5833267 L3.78333502,10.4499926 L2.41666617,10.4499926 C2.18333264,10.4499926 2,10.6333252 2,10.8666587 L2,14.2666552 C2,14.4999887 2.18333264,14.6833214 2.41666617,14.6833214 L5.81666261,14.6833214 C6.04999614,14.6833214 6.23332878,14.4999887 6.23332878,14.2666552 L6.23332878,10.8666587 C6.23332878,10.6333252 6.04999614,10.4499926 5.81666261,10.4499926 L4.61666736,10.4499926 L4.61666736,9 L11.3666629,9 L11.3666629,10.4499926 L10.1666677,10.4499926 C9.93333413,10.4499926 9.75000149,10.6333252 9.75000149,10.8666587 L9.75000149,14.2666552 C9.75000149,14.4999887 9.93333413,14.6833214 10.1666677,14.6833214 L13.5833338,14.6833214 C13.8166674,14.6833214 14,14.4999887 14,14.2666552 L14,10.8666587 C14,10.6333252 13.8166674,10.4499926 13.5833338,10.4499926 L13.5833219,10.4499926 Z M6.66666469,3.83333116 L9.23332878,3.83333116 L9.23332878,6.39999525 L6.66666469,6.39999525 L6.66666469,3.83333116 Z M5.40000238,13.849989 L2.83333828,13.849989 L2.83333828,11.2833249 L5.40000238,11.2833249 L5.40000238,13.849989 Z M13.1666617,13.849989 L10.5999976,13.849989 L10.5999976,11.2833249 L13.1666617,11.2833249 L13.1666617,13.849989 Z" id="形状"fill-rule="nonzero"></path>
</svg>
