<svg t="1650421346872" class="icon" viewBox="0 0 1024 1024" version="1.1" xmlns="http://www.w3.org/2000/svg" p-id="19816" width="200" height="200"><path d="M733.9 480H286c-16.5 0-29.9 13.4-29.9 29.9s13.4 29.9 29.9 29.9h447.8c16.5 0 29.9-13.4 29.9-29.9S750.3 480 733.9 480zM614.4 659.2h-209c-16.5 0-29.9 13.4-29.9 29.9s13.4 29.9 29.9 29.9h209c16.5 0 29.9-13.4 29.9-29.9 0-16.6-13.4-29.9-29.9-29.9zM405.5 360.6h209c16.5 0 29.9-13.4 29.9-29.9s-13.4-29.9-29.9-29.9h-209c-16.5 0-29.9 13.4-29.9 29.9 0 16.6 13.4 29.9 29.9 29.9z" p-id="19817"></path><path d="M511.8 63.9C264.5 63.9 64 264.4 64 511.8s200.5 447.8 447.8 447.8 447.8-200.5 447.8-447.8S759.1 63.9 511.8 63.9z m0 865.8c-230.5 0-418-187.5-418-418s187.5-418 418-418 418 187.5 418 418-187.5 418-418 418z" p-id="19818"></path></svg>