<?xml version="1.0" encoding="UTF-8"?>
<svg width="14px" height="14px" viewBox="0 0 14 14" version="1.1" xmlns="http://www.w3.org/2000/svg" xmlns:xlink="http://www.w3.org/1999/xlink">
    <title>icon</title>
    <g id="素材管理+留言反馈" stroke="none" stroke-width="1" fill="none" fill-rule="evenodd">
        <g id="素材管理-素材编辑-新增" transform="translate(-623.000000, -409.000000)">
            <g id="上传视频" transform="translate(239.000000, 152.000000)">
                <g id="2" transform="translate(80.000000, 257.000000)">
                    <g id="刷新" transform="translate(304.000000, 0.000000)">
                        <rect id="矩形" fill="#D8D8D8" opacity="0" x="0" y="0" width="14" height="14"></rect>
                        <path d="M10.1024917,6.54600723 C10.1024917,5.57314967 9.72803673,4.65914399 9.04688536,3.97213841 C8.36692274,3.28393177 7.46228715,2.90559827 6.49940302,2.90559827 C5.53651888,2.90559827 4.6318833,3.28393177 3.95192068,3.97213841 C3.27076931,4.66034505 2.89631437,5.57435073 2.89631437,6.54600723 C2.89631437,7.51766373 3.27076931,8.43287047 3.95192068,9.11987606 C4.63307204,9.8080827 5.53770763,10.1864162 6.49940302,10.1864162 C6.50296926,10.1864162 5.72315198,9.14990253 5.72315198,9.14990253 C5.57218126,8.95052678 5.60903238,8.66587586 5.80636419,8.51454247 C5.88838765,8.45088635 5.98348732,8.42085989 6.07858699,8.42085989 C6.21291527,8.42085989 6.34724355,8.48211388 6.43521074,8.59861658 L7.84625206,10.4590565 C7.99722278,10.6584323 7.96037166,10.9430832 7.76303985,11.0944166 L5.89314264,12.5428934 C5.69581083,12.6954279 5.41407806,12.656994 5.26429609,12.4588193 C5.11332536,12.2594435 5.15017649,11.9747926 5.3475083,11.8234592 L6.29493873,11.0896123 C5.7600031,11.0655912 5.24052117,10.9478874 4.74838039,10.7365011 C4.21225602,10.5070989 3.73081395,10.1792098 3.31831914,9.76244247 C2.90463559,9.34447404 2.58010797,8.85804526 2.35424626,8.31756884 C2.11887458,7.75667442 2,7.1609493 2,6.54720829 C2,5.93346729 2.11887458,5.33774217 2.35424626,4.77684775 C2.58129672,4.23517027 2.90582433,3.74874149 3.31831914,3.33197411 C3.73200269,2.91400568 4.21344476,2.58611665 4.74838039,2.3579155 C5.3035247,2.12010587 5.89314264,2 6.50059176,2 C7.10804089,2 7.69765883,2.12010587 8.25280314,2.3579155 C8.78773877,2.58491559 9.26918083,2.91280462 9.68167564,3.329572 C10.0953592,3.74754043 10.4198868,4.23396921 10.6457485,4.77444563 C10.8811202,5.33534005 10.9999948,5.93106517 10.9999948,6.54480617 C11.0011835,6.79582745 10.7990967,7.00000743 10.5518376,7.00000743 C10.3033897,7.00000743 10.1024917,6.7970285 10.1024917,6.54600723 Z" id="Shape" fill="#677AA7" fill-rule="nonzero" transform="translate(6.500000, 7.318182) scale(1, -1) translate(-6.500000, -7.318182) "></path>
                    </g>
                </g>
            </g>
        </g>
    </g>
</svg>
