<?xml version="1.0" encoding="UTF-8"?>
<svg width="18px" height="18px" viewBox="0 0 18 18" version="1.1" xmlns="http://www.w3.org/2000/svg" xmlns:xlink="http://www.w3.org/1999/xlink">
<path d="M15.8523323,7.54487684 C15.7754909,7.21733619 15.5267874,6.95739186 15.2029612,6.86615566 L14.9791667,6.81479297 C13.8349493,6.46724173 13.1595356,5.28848405 13.4382862,4.12558962 L13.5043239,3.91280137 C13.5865646,3.58700226 13.4870365,3.24215825 13.2438417,3.01028565 C12.9870163,2.81764195 12.7159764,2.64471604 12.4330451,2.49299005 C12.1583488,2.32487931 11.8713725,2.17771195 11.5745545,2.05273848 C11.2531494,1.95593356 10.9045299,2.04168269 10.6647013,2.27653302 L10.5069445,2.44529612 C9.63912584,3.2689686 8.27832699,3.2689686 7.41050838,2.44529612 L7.2600891,2.28020178 C7.02026043,2.04535145 6.67164101,1.95960232 6.35023585,2.05640723 C6.05095741,2.17973413 5.76151034,2.32568414 5.48440775,2.49299005 C5.20122527,2.6470473 4.93017714,2.82243139 4.67361112,3.01762316 C4.42771256,3.24787117 4.32651111,3.59364279 4.40946017,3.92013888 L4.47549791,4.13292715 C4.75146905,5.2947596 4.07437573,6.47042518 2.93094863,6.81479297 L2.71082285,6.86615566 C2.38841458,6.95853213 2.14131648,7.21826594 2.06512055,7.54487684 C2.02450322,7.86603554 2.00855855,8.18983481 2.01742662,8.5134303 C2.00936262,8.83091609 2.02530601,9.14855732 2.06512055,9.46363994 C2.13609688,9.79689807 2.38396047,10.0644781 2.71082285,10.1607049 L2.92361112,10.2083989 C4.07575561,10.551444 4.75771326,11.7364059 4.47549791,12.9049397 L4.40946017,13.117728 C4.32651111,13.4442241 4.42771256,13.7899957 4.67361112,14.0202437 C4.92991097,14.2158141 5.20098893,14.3912175 5.48440775,14.5448768 C5.76052953,14.7074511 6.04876935,14.8485047 6.34656709,14.9667846 C6.66733246,15.0637177 7.0154387,14.9794985 7.25642033,14.7466588 L7.40683962,14.5999083 C8.27637954,13.7734445 9.64107329,13.7734445 10.5106132,14.5999083 L10.6610325,14.7613339 C10.9020141,14.9941735 11.2501204,15.0783928 11.5708857,14.9814596 C11.8686559,14.8559994 12.1568164,14.7088536 12.4330451,14.5412081 C12.7163373,14.3873355 12.9873992,14.2119425 13.2438417,14.016575 C13.4890464,13.7859007 13.5901275,13.4405402 13.5079927,13.1140592 L13.4419549,12.8939334 C13.1597396,11.7253996 13.8416972,10.5404377 14.9938417,10.1973926 L15.20663,10.1496986 C15.5328307,10.0579132 15.7822637,9.79438794 15.8560011,9.46363994 C15.9008086,9.1477075 15.9216578,8.82883865 15.91837,8.50976152 C15.9207739,8.18692657 15.898698,7.86437395 15.8523323,7.54487684 L15.8523323,7.54487684 Z M8.94772013,10.6009686 C8.04189387,10.6039264 7.22360849,10.0605556 6.87490395,9.22453212 C6.52619941,8.38850869 6.71585314,7.42472742 7.35531986,6.7831572 C7.99478657,6.14158697 8.95793981,5.94876916 9.7951039,6.29472627 C10.632268,6.64068337 11.1783311,7.45717988 11.1783311,8.36301101 C11.1793019,8.95557828 10.944839,9.5242623 10.5265187,9.94395867 C10.1081984,10.363655 9.5402874,10.5999843 8.94772013,10.6009686 Z" id="形状" fill-rule="nonzero"></path>
</svg>
