<svg t="1650421129367" class="icon" viewBox="0 0 1024 1024" version="1.1" xmlns="http://www.w3.org/2000/svg" p-id="14027" width="200" height="200"><path d="M463.31904 817.3568v-148.95104h-42.9056a19.31264 19.31264 0 0 1-16.6912-9.44128 18.1248 18.1248 0 0 1 0.22528-18.75968l81.3056-131.35872a19.33312 19.33312 0 0 1 16.46592-9.05216c6.7584 0 13.0048 3.44064 16.46592 9.05216l81.3056 131.35872a18.1248 18.1248 0 0 1 0.2048 18.78016 19.31264 19.31264 0 0 1-16.73216 9.4208h-42.84416v111.69792h230.4l-0.36864-1.26976c69.9392-9.5232 120.34048-69.89824 115.38432-138.19904-4.95616-68.3008-63.56992-121.2416-134.18496-121.18016 29.73696-38.42048 24.43264-92.4672-12.22656-124.76416-36.6592-32.31744-92.65152-32.27648-129.2288 0.1024-15.83104-65.49504-66.84672-117.63712-133.48864-136.35584-66.62144-18.7392-138.48576-1.16736-187.98592 45.95712-49.50016 47.14496-68.9152 116.51072-50.81088 181.4528-76.10368 16.87552-127.03744 86.4256-118.43584 161.66912 8.6016 75.264 74.0352 132.28032 152.10496 132.58752h76.8c21.1968 0 38.4 16.67072 38.4 37.23264s-17.2032 37.23264-38.4 37.23264h-115.15904v-3.072c-95.80544-15.7696-171.13088-88.08448-188.3136-180.8384-17.2032-92.75392 27.46368-185.97888 111.616-233.08288 3.33824-112.9472 81.3056-210.944 193.1264-242.72896 111.8208-31.744 232.0384 9.95328 297.65632 103.3216a176.55808 176.55808 0 0 1 141.02528 39.05536c38.7072 32.68608 60.416 80.36352 59.26912 130.10944 83.80416 41.43104 129.2288 131.62496 111.4112 221.184-17.77664 89.57952-94.53568 156.93824-188.2112 165.19168v0.86016H501.71904c-21.21728 0-38.4-16.67072-38.4-37.23264z" p-id="14028"></path></svg>