<?xml version="1.0" encoding="UTF-8"?>
<svg viewBox="0 0 64 64" version="1.1" xmlns="http://www.w3.org/2000/svg" xmlns:xlink="http://www.w3.org/1999/xlink">
    <path d="M55.8,14 C58.124,14 60,15.876 60,18.2 L60,46.2 C60,48.4535758 58.2359743,50.2858916 56.0099988,50.3948717 L55.8,50.4 L55.8,50.4 L8.2,50.4 C5.876,50.4 4,48.524 4,46.2 L4,18.2 C4,15.9464242 5.76402571,14.1141084 7.99000117,14.0051283 L8.2,14 L8.2,14 L55.8,14 Z M12.4,39.2 L6.8,39.2 L6.8,46.2 C6.8,46.984 7.416,47.6 8.2,47.6 L12.4,47.6 L12.4,39.2 Z M48.8,16.8 L15.199,16.8 L15.1998698,37.7809652 C15.1999565,37.787302 15.2,37.7936471 15.2,37.8 L15.2,47.6 L48.8,47.6 L48.8,16.8 Z M57.199,39.2 L51.6,39.2 L51.6,47.6 L55.8,47.6 C56.5378824,47.6 57.1269481,47.0543391 57.1936967,46.3365178 L57.2,46.2 L57.2,46.2 L57.199,39.2 Z M28.528,23.884 L38.44,29.848 C39.28,30.38 39.756,31.304 39.728,32.284 C39.7,33.236 39.196,34.104 38.384,34.58 L28.528,40.516 C28.052,40.796 27.548,40.936 27.072,40.936 C26.596,40.936 26.12,40.824 25.672,40.572 C24.804,40.068 24.272,39.144 24.272,38.136 L24.272,26.292 C24.272,25.284 24.832,24.36 25.7,23.856 C26.568,23.352 27.66,23.38 28.528,23.884 Z M27.072,26.264 L27.072,38.108 L36.928,32.2 L27.072,26.264 Z M12.4,28 L6.8,28 L6.8,36.4 L12.4,36.4 L12.4,28 Z M57.199,28 L51.6,28 L51.6,36.4 L57.199,36.4 L57.199,28 Z M12.4,16.8 L8.2,16.8 C7.416,16.8 6.8,17.416 6.8,18.2 L6.8,25.2 L12.4,25.2 L12.4,16.8 Z M55.8,16.8 L51.6,16.8 L51.6,25.2 L57.199,25.199 L57.2,18.2 C57.2,17.416 56.584,16.8 55.8,16.8 Z" id="形状结合" fill-rule="nonzero"></path>
</svg>
