<?xml version="1.0" encoding="UTF-8"?>
<svg viewBox="0 0 16 16" version="1.1" xmlns="http://www.w3.org/2000/svg" xmlns:xlink="http://www.w3.org/1999/xlink">
    <path d="M8.00090498,2 C8.55294118,2 9,2.44705882 9.00180995,2.99909502 L9.00180995,2.99909502 L9.00180995,12.999095 C9.00180995,13.5529412 8.55294118,14 8.00090498,14 L8.00090498,14 L4.50045249,11.6669683 L4.50045249,4.33303167 Z M12.1550123,4.10877063 C14.5534963,6.20254469 14.6134584,9.57023415 12.3348986,11.7276926 L12.1550123,11.8912295 C12.0054129,12.0212224 11.7803114,12.0343109 11.6155419,11.9325767 L11.5490163,11.8819524 C11.3865138,11.7309624 11.3886044,11.488069 11.5536839,11.3394371 C11.5555397,11.3377662 11.5574125,11.3361111 11.5593019,11.3344722 C13.610386,9.54399239 13.6689884,6.67805315 11.7351092,4.82611856 L11.559302,4.66539725 C11.3912629,4.51956563 11.3842906,4.27674935 11.5437298,4.12305219 L11.5463606,4.12053901 L11.5490163,4.11804777 C11.7144558,3.96433469 11.9840415,3.96020776 12.1550123,4.10877063 Z M3.50135747,4.99909502 L3.50135747,11.000905 L2.00090498,11.000905 C1.44705882,11.000905 1,10.5520362 1,10 L1,10 L1,6 C1,5.4479638 1.44886878,4.99909502 2.00090498,4.99909502 L2.00090498,4.99909502 L3.50135747,4.99909502 Z M10.7233119,5.65438605 C12.183022,6.90272312 12.2333569,8.90845665 10.8743164,10.2090169 L10.723312,10.3454749 C10.572263,10.474144 10.3469495,10.4851538 10.1832865,10.3818442 L10.117316,10.3305792 C9.95660144,10.1778963 9.96164114,9.93495633 10.1285719,9.78795977 C10.1303291,9.78641244 10.1321009,9.78487917 10.1338873,9.78336012 C11.2425424,8.83543219 11.2868886,7.33044325 10.2669259,6.33783122 L10.1338873,6.21650072 C9.96417952,6.07218807 9.9545086,5.82936689 10.1122871,5.67414342 L10.1147899,5.67170254 L10.1173159,5.6692817 C10.2810586,5.51396268 10.5506845,5.50733558 10.7233119,5.65438605 Z" id="形状结合" fill-rule="nonzero"></path>
</svg>
