<svg t="1660555247888" class="icon" viewBox="0 0 1024 1024" version="1.1" xmlns="http://www.w3.org/2000/svg" p-id="904" width="200" height="200"><path d="M715.946667 773.504l0.853333 0.938667a11.349333 11.349333 0 0 0 1.706667 1.408l3.584 3.498666c22.272 22.186667 37.504 50.517333 43.690666 81.365334a44.373333 44.373333 0 0 0 1.706667 10.453333 51.669333 51.669333 0 1 0 58.368-64.597333l-3.114667-0.426667a158.762667 158.762667 0 0 1-83.498666-44.032l-4.992-5.034667a12.373333 12.373333 0 0 0-18.346667 16.512v-0.085333zM879.36 813.141333l1.066667-0.853333a76.074667 76.074667 0 0 1 4.864-5.290667 158.848 158.848 0 0 1 81.408-43.648 41.642667 41.642667 0 0 0 5.034666-0.554666 51.114667 51.114667 0 0 0 28.373334-14.464 51.626667 51.626667 0 1 0-87.978667-41.898667 158.592 158.592 0 0 1-44.032 83.413333l-5.034667 5.034667a12.330667 12.330667 0 0 0 16.469334 18.346667l-0.128-0.085334zM919.168 649.813333l-0.853333-0.981333a15.189333 15.189333 0 0 0-1.792-1.408l-3.328-3.2a158.592 158.592 0 0 1-43.605334-81.450667c0-1.621333-0.298667-3.285333-0.554666-4.992a51.669333 51.669333 0 1 0-62.677334 58.496c0.981333 0 2.048 0.426667 3.072 0.597334l3.114667 0.426666a158.933333 158.933333 0 0 1 83.541333 44.032c1.706667 1.706667 3.328 3.413333 5.034667 5.034667a12.373333 12.373333 0 0 0 18.346667-16.512l-0.298667-0.042667zM755.626667 610.048a16.426667 16.426667 0 0 0-2.432 2.602667l-3.413334 3.626666a158.890667 158.890667 0 0 1-81.450666 43.562667c-1.621333 0-3.370667 0.341333-5.034667 0.554667-10.752 1.706667-20.650667 6.784-28.330667 14.464a51.712 51.712 0 1 0 86.784 48.213333l0.597334-3.114667c0-1.024 0.298667-2.133333 0.426666-3.114666a159.061333 159.061333 0 0 1 44.330667-83.456l5.034667-5.034667a12.373333 12.373333 0 0 0-16.512-18.346667v0.042667z" p-id="905"></path><path d="M832.597333 357.632a315.562667 315.562667 0 0 0-57.429333-81.493333c-59.946667-61.952-143.872-101.845333-236.373333-112.384-16.170667-1.877333-32.426667-2.858667-48.768-2.901334-15.658667 0-31.317333 0.853333-46.848 2.56-92.885333 10.112-177.237333 49.834667-237.653334 111.872a316.629333 316.629333 0 0 0-57.728 81.237334 283.562667 283.562667 0 0 0-29.610666 125.866666 289.024 289.024 0 0 0 49.408 160.768c21.589333 31.573333 47.36 60.16 76.458666 84.906667l-14.848 61.44-4.266666 17.322667a27.136 27.136 0 0 0-2.133334 8.874666 21.845333 21.845333 0 0 0-0.298666 2.688 28.373333 28.373333 0 0 0 42.709333 24.704h0.426667c0.597333-0.426667 1.28-0.725333 1.792-1.109333l106.24-53.418667c22.656 6.4 45.866667 10.88 69.333333 13.354667a429.525333 429.525333 0 0 0 95.786667-0.256 417.962667 417.962667 0 0 0 93.696-21.930667 51.584 51.584 0 0 1-35.285334-53.973333c-21.589333 6.826667-43.818667 11.52-66.346666 14.08a352.64 352.64 0 0 1-80.213334 0.213333l-8.106666-1.066666a353.194667 353.194667 0 0 1-52.565334-11.050667 35.968 35.968 0 0 0-28.330666 2.858667l-2.218667 1.194666-68.096 40.277334a6.186667 6.186667 0 0 1-2.986667 1.066666 4.437333 4.437333 0 0 1-4.309333-4.48l2.517333-10.026666 2.901334-11.093334 10.069333-38.314666a27.306667 27.306667 0 0 0-9.856-30.464 268.672 268.672 0 0 1-27.264-22.912 264.618667 264.618667 0 0 1-38.698667-45.653334 228.650667 228.650667 0 0 1-39.253333-126.592c0.042667-34.432 8.064-68.437333 23.466667-99.285333a254.506667 254.506667 0 0 1 46.293333-65.152c49.621333-50.944 119.466667-83.626667 196.48-92.032a363.648 363.648 0 0 1 80.213333 0.213333c76.714667 8.704 146.090667 41.6 195.413334 92.501334a254.72 254.72 0 0 1 46.08 65.450666c15.061333 30.634667 22.912 64.298667 22.912 98.432 0 3.498667 0 7.04-0.341334 10.538667a51.626667 51.626667 0 0 1 63.402667 7.466667c0.853333 0.853333 1.621333 1.834667 2.432 2.730666a283.136 283.136 0 0 0-28.202667-147.029333z" p-id="906"></path></svg>